<svg width="16" height="16" viewBox="0 0 16 16" fill="none" xmlns="http://www.w3.org/2000/svg">
<path d="M12.0443 8C12.0443 8.21094 11.9623 8.38672 11.7982 8.52734C11.6576 8.66797 11.4818 8.73828 11.2709 8.73828H3.78259L0.794312 11.7617V1.25C0.794312 1.03906 0.864624 0.863281 1.00525 0.722656C1.14587 0.582031 1.32166 0.511719 1.53259 0.511719H11.2709C11.4818 0.511719 11.6576 0.582031 11.7982 0.722656C11.9623 0.863281 12.0443 1.03906 12.0443 1.25V8ZM15.0326 3.5C15.2435 3.5 15.4193 3.57031 15.5599 3.71094C15.7006 3.85156 15.7709 4.02734 15.7709 4.23828V15.4883L12.7826 12.5H4.52087C4.30994 12.5 4.13416 12.4297 3.99353 12.2891C3.85291 12.1484 3.78259 11.9727 3.78259 11.7617V10.25H13.5209V3.5H15.0326Z" fill="#8083A3"/>
</svg>
