<svg width="15" height="14" viewBox="0 0 15 14" fill="none" xmlns="http://www.w3.org/2000/svg">
<path d="M13.2943 9.53125C13.5052 9.53125 13.681 9.60156 13.8217 9.74219C13.9623 9.88281 14.0326 10.0586 14.0326 10.2695V12.8711C14.0326 13.457 13.7865 13.75 13.2943 13.75C9.80212 13.75 6.80212 12.4961 4.29431 9.98828C1.7865 7.48047 0.532593 4.48047 0.532593 0.988281C0.532593 0.496094 0.825562 0.25 1.4115 0.25H4.01306C4.224 0.25 4.39978 0.320312 4.54041 0.460938C4.68103 0.601562 4.75134 0.777344 4.75134 0.988281C4.75134 1.90234 4.89197 2.78125 5.17322 3.625C5.26697 3.92969 5.20837 4.1875 4.99744 4.39844L3.55603 5.66406C4.63416 7.91406 6.35681 9.61328 8.724 10.7617L9.88416 9.28516C10.0248 9.14453 10.2006 9.07422 10.4115 9.07422C10.5287 9.07422 10.6107 9.08594 10.6576 9.10938C11.5013 9.39062 12.3802 9.53125 13.2943 9.53125Z" fill="#8083A3"/>
</svg>
