<svg width="14" height="15" viewBox="0 0 14 15" fill="none" xmlns="http://www.w3.org/2000/svg">
<path d="M7 14.75C8.26389 14.75 9.43866 14.434 10.5243 13.8021C11.5938 13.1863 12.4363 12.3438 13.0521 11.2743C13.684 10.1887 14 9.01389 14 7.75C14 7.28009 13.9514 6.81018 13.8542 6.34028L13.8299 6.19444H7V8.52778H11.6667C11.537 9.25694 11.2494 9.91724 10.8038 10.5087C10.3582 11.1001 9.80324 11.566 9.13889 11.9062C8.47454 12.2465 7.76157 12.4167 7 12.4167C6.15741 12.4167 5.37963 12.206 4.66667 11.7847C3.9537 11.3634 3.38657 10.7963 2.96528 10.0833C2.54398 9.37037 2.33333 8.59259 2.33333 7.75C2.33333 6.90741 2.54398 6.12963 2.96528 5.41667C3.38657 4.7037 3.9537 4.13657 4.66667 3.71528C5.37963 3.29398 6.15741 3.08333 7 3.08333C7.56713 3.08333 8.114 3.18461 8.64062 3.38715C9.16725 3.5897 9.6331 3.86921 10.0382 4.22569L11.7153 2.57292C11.0833 2.00579 10.3623 1.56019 9.55208 1.23611C8.7419 0.912037 7.8912 0.75 7 0.75C5.73611 0.75 4.56134 1.06597 3.47569 1.69792C2.40625 2.31366 1.56366 3.15625 0.947917 4.22569C0.315972 5.31134 0 6.48611 0 7.75C0 9.01389 0.315972 10.1887 0.947917 11.2743C1.56366 12.3438 2.40625 13.1863 3.47569 13.8021C4.56134 14.434 5.73611 14.75 7 14.75Z" fill="#8083A3"/>
</svg>
