<svg width="14" height="14" viewBox="0 0 14 14" fill="none" xmlns="http://www.w3.org/2000/svg">
<path d="M7 5.48828L9.98828 8.51172H7.73828V13.0117H6.26172V8.51172H4.01172L7 5.48828ZM12.2383 0.988281C12.6602 0.988281 13.0117 1.14062 13.293 1.44531C13.5977 1.72656 13.75 2.07812 13.75 2.5V11.5C13.75 11.8984 13.5977 12.25 13.293 12.5547C12.9883 12.8594 12.6367 13.0117 12.2383 13.0117H9.25V11.5H12.2383V4.01172H1.76172V11.5H4.75V13.0117H1.76172C1.33984 13.0117 0.976562 12.8711 0.671875 12.5898C0.390625 12.2852 0.25 11.9219 0.25 11.5V2.5C0.25 2.07812 0.390625 1.72656 0.671875 1.44531C0.976562 1.14062 1.33984 0.988281 1.76172 0.988281H12.2383Z" fill="#8083A3"/>
</svg>
