<svg width="13" height="4" viewBox="0 0 13 4" fill="none" xmlns="http://www.w3.org/2000/svg">
<path d="M5.22791 0.945312C5.53259 0.640625 5.88416 0.488281 6.28259 0.488281C6.68103 0.488281 7.03259 0.640625 7.33728 0.945312C7.64197 1.25 7.79431 1.60156 7.79431 2C7.79431 2.39844 7.64197 2.75 7.33728 3.05469C7.03259 3.35938 6.68103 3.51172 6.28259 3.51172C5.88416 3.51172 5.53259 3.35938 5.22791 3.05469C4.92322 2.75 4.77087 2.39844 4.77087 2C4.77087 1.60156 4.92322 1.25 5.22791 0.945312ZM9.72791 0.945312C10.0326 0.640625 10.3842 0.488281 10.7826 0.488281C11.181 0.488281 11.5326 0.640625 11.8373 0.945312C12.142 1.25 12.2943 1.60156 12.2943 2C12.2943 2.39844 12.142 2.75 11.8373 3.05469C11.5326 3.35938 11.181 3.51172 10.7826 3.51172C10.3842 3.51172 10.0326 3.35938 9.72791 3.05469C9.42322 2.75 9.27087 2.39844 9.27087 2C9.27087 1.60156 9.42322 1.25 9.72791 0.945312ZM0.727905 0.945312C1.03259 0.640625 1.38416 0.488281 1.78259 0.488281C2.18103 0.488281 2.53259 0.640625 2.83728 0.945312C3.14197 1.25 3.29431 1.60156 3.29431 2C3.29431 2.39844 3.14197 2.75 2.83728 3.05469C2.53259 3.35938 2.18103 3.51172 1.78259 3.51172C1.38416 3.51172 1.03259 3.35938 0.727905 3.05469C0.423218 2.75 0.270874 2.39844 0.270874 2C0.270874 1.60156 0.423218 1.25 0.727905 0.945312Z" fill="#8083A3"/>
</svg>
