<svg width="14" height="14" viewBox="0 0 14 14" fill="none" xmlns="http://www.w3.org/2000/svg">
<path d="M2.61566 7.52734C3.27191 8.18359 4.06879 8.51172 5.00629 8.51172C5.94379 8.51172 6.74066 8.18359 7.39691 7.52734C8.05316 6.87109 8.38129 6.07422 8.38129 5.13672C8.38129 4.19922 8.05316 3.40234 7.39691 2.74609C6.74066 2.08984 5.94379 1.76172 5.00629 1.76172C4.06879 1.76172 3.27191 2.08984 2.61566 2.74609C1.95941 3.40234 1.63129 4.19922 1.63129 5.13672C1.63129 6.07422 1.95941 6.87109 2.61566 7.52734ZM9.50629 8.51172L13.2328 12.2383L12.1078 13.3633L8.38129 9.63672V9.03906L8.17035 8.82812C7.27972 9.60156 6.22504 9.98828 5.00629 9.98828C3.64691 9.98828 2.48676 9.51953 1.52582 8.58203C0.588318 7.64453 0.119568 6.49609 0.119568 5.13672C0.119568 3.77734 0.588318 2.62891 1.52582 1.69141C2.48676 0.730469 3.64691 0.25 5.00629 0.25C6.36566 0.25 7.5141 0.730469 8.4516 1.69141C9.3891 2.62891 9.85785 3.77734 9.85785 5.13672C9.85785 6.35547 9.47113 7.41016 8.69769 8.30078L8.90863 8.51172H9.50629Z" fill="#1D1D24"/>
</svg>
