<svg width="16" height="13" viewBox="0 0 16 13" fill="none" xmlns="http://www.w3.org/2000/svg">
<path d="M14.3437 3.24999C14.3645 3.33333 14.375 3.46874 14.375 3.65624C14.375 5.15624 14.0104 6.60415 13.2812 7.99998C12.5312 9.47914 11.4791 10.6562 10.125 11.5312C8.64581 12.5104 6.9479 13 5.03124 13C3.19791 13 1.52083 12.5104 0 11.5312C0.229166 11.5521 0.489582 11.5625 0.781248 11.5625C2.30208 11.5625 3.66666 11.0937 4.87499 10.1562C4.14582 10.1562 3.5052 9.94268 2.95312 9.5156C2.40104 9.08852 2.02083 8.55206 1.8125 7.90623C2.02083 7.92706 2.21874 7.93748 2.40624 7.93748C2.69791 7.93748 2.98958 7.90623 3.28124 7.84373C2.53124 7.67707 1.90625 7.29165 1.40625 6.68748C0.906248 6.08332 0.656248 5.39582 0.656248 4.62499V4.56249C1.11458 4.83332 1.60416 4.97915 2.12499 4.99999C1.6875 4.68749 1.33333 4.29166 1.0625 3.81249C0.791665 3.33333 0.656248 2.80728 0.656248 2.23437C0.656248 1.66145 0.812498 1.11458 1.125 0.593749C1.9375 1.61458 2.93228 2.42708 4.10936 3.03124C5.28645 3.63541 6.54165 3.96874 7.87498 4.03124C7.83331 3.78124 7.81248 3.53124 7.81248 3.28124C7.81248 2.69791 7.95831 2.15104 8.24998 1.64062C8.54165 1.13021 8.93748 0.729165 9.43748 0.437499C9.93748 0.145833 10.4791 0 11.0625 0C11.5416 0 11.9843 0.0937498 12.3906 0.281249C12.7968 0.468749 13.1562 0.718748 13.4687 1.03125C14.2187 0.885414 14.9166 0.624999 15.5625 0.249999C15.3125 1.02083 14.8333 1.625 14.125 2.06249C14.75 1.97916 15.375 1.80208 16 1.53125C15.5416 2.19791 14.9895 2.77083 14.3437 3.24999Z" fill="#8083A3"/>
</svg>
